<svg width="18" height="19" viewBox="0 0 18 19" fill="none" xmlns="http://www.w3.org/2000/svg">
<path d="M12.2813 8.1875V4.25C12.2813 3.37976 11.9356 2.54516 11.3203 1.92981C10.7049 1.31445 9.87032 0.96875 9.00008 0.96875C8.12984 0.96875 7.29524 1.31445 6.67988 1.92981C6.06453 2.54516 5.71883 3.37976 5.71883 4.25V8.1875M15.6553 6.44362L16.7605 16.9436C16.8217 17.5255 16.3667 18.0312 15.7813 18.0312H2.21883C2.08076 18.0314 1.94421 18.0025 1.81803 17.9464C1.69186 17.8904 1.5789 17.8084 1.48647 17.7058C1.39405 17.6032 1.32424 17.4824 1.28158 17.3511C1.23891 17.2197 1.22435 17.0809 1.23883 16.9436L2.34483 6.44362C2.37034 6.20174 2.4845 5.97786 2.6653 5.81516C2.84609 5.65246 3.08073 5.56246 3.32395 5.5625H14.6762C15.1802 5.5625 15.6028 5.94312 15.6553 6.44362ZM6.04695 8.1875C6.04695 8.27452 6.01238 8.35798 5.95085 8.41952C5.88931 8.48106 5.80585 8.51562 5.71883 8.51562C5.6318 8.51562 5.54834 8.48106 5.48681 8.41952C5.42527 8.35798 5.3907 8.27452 5.3907 8.1875C5.3907 8.10048 5.42527 8.01702 5.48681 7.95548C5.54834 7.89394 5.6318 7.85938 5.71883 7.85938C5.80585 7.85938 5.88931 7.89394 5.95085 7.95548C6.01238 8.01702 6.04695 8.10048 6.04695 8.1875ZM12.6095 8.1875C12.6095 8.27452 12.5749 8.35798 12.5133 8.41952C12.4518 8.48106 12.3684 8.51562 12.2813 8.51562C12.1943 8.51562 12.1108 8.48106 12.0493 8.41952C11.9878 8.35798 11.9532 8.27452 11.9532 8.1875C11.9532 8.10048 11.9878 8.01702 12.0493 7.95548C12.1108 7.89394 12.1943 7.85938 12.2813 7.85938C12.3684 7.85938 12.4518 7.89394 12.5133 7.95548C12.5749 8.01702 12.6095 8.10048 12.6095 8.1875Z" stroke="white" stroke-width="1.5" stroke-linecap="round" stroke-linejoin="round"/>
</svg>
