<svg width="16" height="16" viewBox="0 0 16 16" fill="none" xmlns="http://www.w3.org/2000/svg">
<path d="M6.23621 14C6.7063 14.415 7.3238 14.6667 8.00009 14.6667C8.67639 14.6667 9.29389 14.415 9.76398 14M12.0001 5.33337C12.0001 4.27251 11.5787 3.25509 10.8285 2.50495C10.0784 1.7548 9.06096 1.33337 8.00009 1.33337C6.93923 1.33337 5.92181 1.7548 5.17167 2.50495C4.42152 3.25509 4.00009 4.27251 4.00009 5.33337C4.00009 7.3935 3.48041 8.80401 2.89987 9.73698C2.41018 10.524 2.16533 10.9174 2.17431 11.0272C2.18425 11.1488 2.21 11.1951 2.30794 11.2678C2.3964 11.3334 2.79515 11.3334 3.59266 11.3334H12.4075C13.205 11.3334 13.6038 11.3334 13.6922 11.2678C13.7902 11.1951 13.8159 11.1488 13.8259 11.0272C13.8349 10.9174 13.59 10.524 13.1003 9.73698C12.5198 8.80401 12.0001 7.3935 12.0001 5.33337Z" stroke="#1D364D" stroke-width="1.5" stroke-linecap="round" stroke-linejoin="round"/>
</svg>
