<svg width="20" height="20" viewBox="0 0 20 20" fill="none" xmlns="http://www.w3.org/2000/svg">
<path d="M13.1249 8.75V5C13.1249 4.1712 12.7956 3.37634 12.2096 2.79029C11.6235 2.20424 10.8287 1.875 9.99987 1.875C9.17106 1.875 8.37621 2.20424 7.79016 2.79029C7.20411 3.37634 6.87487 4.1712 6.87487 5V8.75M16.3382 7.08917L17.3907 17.0892C17.449 17.6433 17.0157 18.125 16.4582 18.125H3.54153C3.41004 18.1251 3.27999 18.0976 3.15982 18.0442C3.03966 17.9908 2.93207 17.9127 2.84405 17.8151C2.75603 17.7174 2.68954 17.6023 2.64891 17.4772C2.60828 17.3521 2.59441 17.2199 2.6082 17.0892L3.66153 7.08917C3.68583 6.8588 3.79455 6.64558 3.96674 6.49063C4.13893 6.33568 4.36239 6.24996 4.59403 6.25H15.4057C15.8857 6.25 16.2882 6.6125 16.3382 7.08917ZM7.18737 8.75C7.18737 8.83288 7.15444 8.91237 7.09584 8.97097C7.03723 9.02958 6.95775 9.0625 6.87487 9.0625C6.79198 9.0625 6.7125 9.02958 6.65389 8.97097C6.59529 8.91237 6.56237 8.83288 6.56237 8.75C6.56237 8.66712 6.59529 8.58763 6.65389 8.52903C6.7125 8.47042 6.79198 8.4375 6.87487 8.4375C6.95775 8.4375 7.03723 8.47042 7.09584 8.52903C7.15444 8.58763 7.18737 8.66712 7.18737 8.75ZM13.4374 8.75C13.4374 8.83288 13.4044 8.91237 13.3458 8.97097C13.2872 9.02958 13.2077 9.0625 13.1249 9.0625C13.042 9.0625 12.9625 9.02958 12.9039 8.97097C12.8453 8.91237 12.8124 8.83288 12.8124 8.75C12.8124 8.66712 12.8453 8.58763 12.9039 8.52903C12.9625 8.47042 13.042 8.4375 13.1249 8.4375C13.2077 8.4375 13.2872 8.47042 13.3458 8.52903C13.4044 8.58763 13.4374 8.66712 13.4374 8.75Z" stroke="#D75951" stroke-width="1.5" stroke-linecap="round" stroke-linejoin="round"/>
</svg>
