<svg width="68" height="68" viewBox="0 0 68 68" fill="none" xmlns="http://www.w3.org/2000/svg">
<rect x="4" y="4" width="60" height="60" rx="30" fill="#F4EBFF"/>
<path d="M23 48V45.7612H40.5775V48H23ZM42.0384 37.1791C40.1123 37.1791 38.4718 36.4875 37.1169 35.1043C35.762 33.721 35.0845 32.0481 35.0845 30.0856C35.0845 28.1231 35.7633 26.4515 37.1208 25.0709C38.4783 23.6903 40.1201 23 42.0461 23C43.9722 23 45.6127 23.6916 46.9676 25.0749C48.3225 26.4581 49 28.131 49 30.0935C49 32.056 48.3212 33.7276 46.9637 35.1082C45.6062 36.4888 43.9644 37.1791 42.0384 37.1791ZM23 35.3134V33.0746H32.5944C32.7242 33.4807 32.8727 33.8682 33.0397 34.2374C33.2066 34.6065 33.3878 34.9652 33.5831 35.3134H23ZM23 41.6567V39.4179H38.3437C38.6806 39.5762 39.0394 39.7091 39.4203 39.8165C39.8011 39.9239 40.1869 40.0025 40.5775 40.0522V41.6567H23ZM41.3099 31.5821H42.7746V25.6119H41.3099V31.5821ZM42.0423 34.5672C42.2376 34.5672 42.4085 34.4925 42.5549 34.3433C42.7014 34.194 42.7746 34.0199 42.7746 33.8209C42.7746 33.6219 42.7014 33.4478 42.5549 33.2985C42.4085 33.1493 42.2376 33.0746 42.0423 33.0746C41.8469 33.0746 41.6761 33.1493 41.5296 33.2985C41.3831 33.4478 41.3099 33.6219 41.3099 33.8209C41.3099 34.0199 41.3831 34.194 41.5296 34.3433C41.6761 34.4925 41.8469 34.5672 42.0423 34.5672Z" fill="#7F56D9"/>
<rect x="4" y="4" width="60" height="60" rx="30" stroke="#F9F5FF" stroke-width="8"/>
</svg>
