<svg width="127" height="38" viewBox="0 0 127 38" fill="none" xmlns="http://www.w3.org/2000/svg">
<path d="M17.4625 1.58337C7.81819 1.58337 0 9.38108 0 19C0 28.619 7.81819 36.4167 17.4625 36.4167C26.1152 36.4167 33.298 30.1401 34.6836 21.9028H34.5582C33.2659 26.9108 28.7079 30.6112 23.2833 30.6112C16.8538 30.6112 11.6417 25.4127 11.6417 19C11.6417 12.5874 16.8538 7.38893 23.2833 7.38893C28.7079 7.38893 33.2659 11.0893 34.5582 16.0973H34.6836C33.298 7.86001 26.1152 1.58337 17.4625 1.58337Z" fill="#A4BCFD"/>
<path d="M0 19C0 9.38108 7.81823 1.58337 17.4625 1.58337C26.1152 1.58337 33.298 7.86001 34.6836 16.0973H22.9166C21.6242 11.0893 17.0662 7.38893 11.6417 7.38893C5.21215 7.38893 0 12.5874 0 19Z" fill="#3538CD"/>
<path d="M0 19.0001C0 28.619 7.81823 36.4167 17.4625 36.4167C26.1152 36.4167 33.298 30.1401 34.6836 21.9029H22.9166C21.6242 26.9108 17.0662 30.6112 11.6417 30.6112C5.21215 30.6112 0 25.4127 0 19.0001Z" fill="#3538CD"/>
<path d="M59.8796 16.2348C59.3823 12.6532 56.62 10.5751 53.0369 10.5751C48.8144 10.5751 45.6338 13.645 45.6338 18.8561C45.6338 24.0593 48.775 27.1371 53.0369 27.1371C56.8805 27.1371 59.4297 24.6575 59.8796 21.5797L56.9278 21.5639C56.5569 23.4532 55.01 24.5158 53.0763 24.5158C50.456 24.5158 48.5777 22.5558 48.5777 18.8561C48.5777 15.2194 50.4403 13.1963 53.0842 13.1963C55.0494 13.1963 56.5884 14.3063 56.9278 16.2348H59.8796Z" fill="#1D364D"/>
<path d="M65.9232 27.1607C67.8252 27.1607 68.9617 26.2712 69.4826 25.2558H69.5773V26.9167H72.3239V18.8246C72.3239 15.6287 69.7115 14.6684 67.399 14.6684C64.8498 14.6684 62.8925 15.8019 62.2611 18.0059L64.9287 18.3838C65.2129 17.5573 66.0179 16.8488 67.4148 16.8488C68.7408 16.8488 69.4669 17.5258 69.4669 18.7144V18.7616C69.4669 19.5803 68.6066 19.6196 66.4677 19.8479C64.1158 20.0998 61.8665 20.8004 61.8665 23.524C61.8665 25.9012 63.6107 27.1607 65.9232 27.1607ZM66.6651 25.0668C65.4733 25.0668 64.6209 24.5237 64.6209 23.4768C64.6209 22.3826 65.5759 21.926 66.8545 21.745C67.6042 21.6427 69.1038 21.4537 69.4747 21.1546V22.5794C69.4747 23.9255 68.3856 25.0668 66.6651 25.0668Z" fill="#1D364D"/>
<path d="M81.2502 14.8258H78.8588V11.929H76.0018V14.8258H74.2812V17.0299H76.0018V23.7523C75.986 26.0272 77.6434 27.145 79.7901 27.082C80.603 27.0584 81.1634 26.901 81.4712 26.7986L80.9898 24.5709C80.8319 24.6103 80.5083 24.6811 80.1532 24.6811C79.435 24.6811 78.8588 24.4292 78.8588 23.28V17.0299H81.2502V14.8258Z" fill="#1D364D"/>
<path d="M87.1281 27.1607C89.0301 27.1607 90.1666 26.2712 90.6875 25.2558H90.7822V26.9167H93.5288V18.8246C93.5288 15.6287 90.9164 14.6684 88.6039 14.6684C86.0547 14.6684 84.0974 15.8019 83.466 18.0059L86.1336 18.3838C86.4178 17.5573 87.2228 16.8488 88.6197 16.8488C89.9457 16.8488 90.6718 17.5258 90.6718 18.7144V18.7616C90.6718 19.5803 89.8115 19.6196 87.6726 19.8479C85.3207 20.0998 83.0714 20.8004 83.0714 23.524C83.0714 25.9012 84.8156 27.1607 87.1281 27.1607ZM87.87 25.0668C86.6782 25.0668 85.8258 24.5237 85.8258 23.4768C85.8258 22.3826 86.7808 21.926 88.0594 21.745C88.8091 21.6427 90.3087 21.4537 90.6796 21.1546V22.5794C90.6796 23.9255 89.5905 25.0668 87.87 25.0668Z" fill="#1D364D"/>
<path d="M99.2587 10.7955H96.4016V26.9167H99.2587V10.7955Z" fill="#1D364D"/>
<path d="M107.485 27.1528C111.036 27.1528 113.293 24.6575 113.293 20.9185C113.293 17.1715 111.036 14.6684 107.485 14.6684C103.933 14.6684 101.676 17.1715 101.676 20.9185C101.676 24.6575 103.933 27.1528 107.485 27.1528ZM107.5 24.8701C105.535 24.8701 104.572 23.1225 104.572 20.9106C104.572 18.6987 105.535 16.9275 107.5 16.9275C109.434 16.9275 110.397 18.6987 110.397 20.9106C110.397 23.1225 109.434 24.8701 107.5 24.8701Z" fill="#1D364D"/>
<path d="M120.99 31.7027C124.266 31.7027 126.681 30.2071 126.681 27.1135V14.8258H123.863V16.8252H123.705C123.271 15.9514 122.364 14.6684 120.225 14.6684C117.423 14.6684 115.221 16.8567 115.221 20.8319C115.221 24.7756 117.423 26.7435 120.217 26.7435C122.293 26.7435 123.263 25.6336 123.705 24.7441H123.847V27.0348C123.847 28.8138 122.664 29.5458 121.038 29.5458C119.317 29.5458 118.56 28.7351 118.212 28.0266L115.639 28.6485C116.16 30.3409 117.904 31.7027 120.99 31.7027ZM121.014 24.508C119.128 24.508 118.133 23.0438 118.133 20.8161C118.133 18.6199 119.112 17.0062 121.014 17.0062C122.853 17.0062 123.863 18.5255 123.863 20.8161C123.863 23.1225 122.837 24.508 121.014 24.508Z" fill="#1D364D"/>
</svg>
