<svg width="20" height="20" viewBox="0 0 20 20" fill="none" xmlns="http://www.w3.org/2000/svg">
<path d="M13.3336 7.49996V4.99996C13.3336 3.15901 11.8413 1.66663 10.0003 1.66663C8.15936 1.66663 6.66698 3.15901 6.66698 4.99996V7.49996M2.99364 8.6266L2.49365 13.9599C2.35148 15.4763 2.2804 16.2346 2.53202 16.8202C2.75306 17.3347 3.14041 17.76 3.63199 18.0281C4.19158 18.3333 4.95311 18.3333 6.47618 18.3333H13.5244C15.0475 18.3333 15.809 18.3333 16.3686 18.0281C16.8602 17.76 17.2476 17.3347 17.4686 16.8202C17.7202 16.2346 17.6491 15.4763 17.507 13.9599L17.007 8.6266C16.8869 7.34608 16.8269 6.70582 16.5389 6.22176C16.2853 5.79545 15.9106 5.45422 15.4625 5.2415C14.9536 4.99996 14.3106 4.99996 13.0244 4.99996L6.97618 4.99996C5.69005 4.99996 5.04699 4.99996 4.53816 5.24149C4.09003 5.45422 3.71532 5.79545 3.46169 6.22176C3.17372 6.70582 3.11369 7.34608 2.99364 8.6266Z" stroke="#1D364D" stroke-width="2" stroke-linecap="round" stroke-linejoin="round"/>
</svg>
