<svg width="16" height="16" viewBox="0 0 16 16" fill="none" xmlns="http://www.w3.org/2000/svg">
<path d="M10.6668 6.00004V4.00004C10.6668 2.52728 9.47292 1.33337 8.00017 1.33337C6.52741 1.33337 5.3335 2.52728 5.3335 4.00004V6.00004M2.39483 6.90135L1.99483 11.168C1.8811 12.3812 1.82424 12.9877 2.02553 13.4562C2.20236 13.8678 2.51224 14.2081 2.90551 14.4226C3.35318 14.6667 3.96241 14.6667 5.18086 14.6667H10.8195C12.0379 14.6667 12.6471 14.6667 13.0948 14.4226C13.4881 14.2081 13.798 13.8678 13.9748 13.4562C14.1761 12.9877 14.1192 12.3812 14.0055 11.168L13.6055 6.90135C13.5095 5.87694 13.4614 5.36473 13.2311 4.97748C13.0282 4.63643 12.7284 4.36345 12.3699 4.19327C11.9628 4.00004 11.4484 4.00004 10.4195 4.00004L5.58086 4.00004C4.55196 4.00004 4.03751 4.00004 3.63044 4.19327C3.27194 4.36345 2.97217 4.63643 2.76927 4.97748C2.53889 5.36473 2.49087 5.87694 2.39483 6.90135Z" stroke="#1D364D" stroke-width="1.5" stroke-linecap="round" stroke-linejoin="round"/>
</svg>
