<svg width="20" height="20" viewBox="0 0 20 20" fill="none" xmlns="http://www.w3.org/2000/svg">
<path d="M6.87502 15.625C6.87502 15.9565 6.74332 16.2745 6.5089 16.5089C6.27448 16.7433 5.95654 16.875 5.62502 16.875C5.2935 16.875 4.97555 16.7433 4.74113 16.5089C4.50671 16.2745 4.37502 15.9565 4.37502 15.625M6.87502 15.625C6.87502 15.2935 6.74332 14.9755 6.5089 14.7411C6.27448 14.5067 5.95654 14.375 5.62502 14.375C5.2935 14.375 4.97555 14.5067 4.74113 14.7411C4.50671 14.9755 4.37502 15.2935 4.37502 15.625M6.87502 15.625H11.875M4.37502 15.625H2.81252C2.56388 15.625 2.32542 15.5262 2.1496 15.3504C1.97379 15.1746 1.87502 14.9361 1.87502 14.6875V11.875M11.875 15.625H13.75M11.875 15.625V11.875M1.87502 11.875V5.5125C1.87369 5.28431 1.95707 5.06374 2.10901 4.89348C2.26095 4.72322 2.47064 4.61538 2.69752 4.59084C5.47505 4.30253 8.27498 4.30253 11.0525 4.59084C11.5233 4.63917 11.875 5.03917 11.875 5.5125V6.31084M1.87502 11.875H11.875M16.25 15.625C16.25 15.9565 16.1183 16.2745 15.8839 16.5089C15.6495 16.7433 15.3315 16.875 15 16.875C14.6685 16.875 14.3506 16.7433 14.1161 16.5089C13.8817 16.2745 13.75 15.9565 13.75 15.625M16.25 15.625C16.25 15.2935 16.1183 14.9755 15.8839 14.7411C15.6495 14.5067 15.3315 14.375 15 14.375C14.6685 14.375 14.3506 14.5067 14.1161 14.7411C13.8817 14.9755 13.75 15.2935 13.75 15.625M16.25 15.625H17.1875C17.705 15.625 18.1284 15.205 18.0959 14.6883C17.9284 11.9364 17.0016 9.28464 15.4184 7.0275C15.2675 6.81607 15.0707 6.64168 14.8426 6.51753C14.6145 6.39337 14.3611 6.32269 14.1017 6.31084H11.875M11.875 6.31084V11.875" stroke="#D75951" stroke-width="1.5" stroke-linecap="round" stroke-linejoin="round"/>
</svg>
